<svg xmlns="http://www.w3.org/2000/svg" xmlns:xlink="http://www.w3.org/1999/xlink" version="1.1" width="1780" height="995" style=""><rect id="backgroundrect" width="100%" height="100%" x="0" y="0" fill="none" stroke="none" class="" style=""/>			<g class="currentLayer" style=""><title>Layer 1</title><g id="document" class="" fill="#ffffff" fill-opacity="1" stroke="#ffffff" stroke-opacity="1">			<g stroke-width="0" id="svg_1" fill="#ffffff" fill-opacity="1" stroke="#ffffff" stroke-opacity="1">				<path d="M326.8766546840668,994.8473947229386 L1425.8946546840666,994.8473947229386 C1476.949654684067,994.8473947229386 1517.255654684067,953.1973947229385 1514.5686546840668,902.1433947229384 C1501.1336546840666,568.9443947229386 1502.4766546840667,230.37139472293848 1548.1576546840668,36.90139472293856 C1577.7156546840667,-88.04860527706148 1186.7446546840667,144.3843947229385 877.7293546840667,144.3843947229385 C568.7146546840668,144.3843947229385 177.74365468406677,-88.04860527706148 207.30165468406676,36.90139472293856 C252.98165468406683,227.68439472293858 251.63865468406675,564.9136947229385 235.51565468406682,900.7993947229386 C234.17265468406674,951.8543947229387 275.82165468406674,994.8473947229386 326.8766546840668,994.8473947229386 z" fill="#ffffff" fill-opacity="1" stroke-width="0" id="svg_2" stroke="#ffffff" stroke-opacity="1"/>				<path d="M36.66665468406677,853.1233947229384 M36.66665468406677,853.1233947229384 L457.38365468406676,762.1773947229385 M36.66665468406677,661.8379947229384 M36.66665468406677,661.8379947229384 L457.38365468406676,661.8380947229384 M36.66665468406677,470.5523947229385 M36.66665468406677,470.5523947229385 L457.38365468406676,559.9303947229387 " fill="#ffffff" stroke-width="72.2" stroke="#ffffff" stroke-linecap="round" stroke-linejoin="round" id="svg_3" fill-opacity="1" stroke-opacity="1"/>				<path d="M1743.7626546840668,853.1233947229384 M1743.7626546840668,853.1233947229384 L1323.045654684067,762.1773947229385 M1743.7626546840668,661.8381947229386 M1743.7626546840668,661.8381947229386 L1323.045654684067,661.8380947229384 M1743.7626546840668,470.5533947229385 M1743.7626546840668,470.5533947229385 L1323.045654684067,559.9304947229384 " fill="#ffffff" stroke-width="72.2" stroke="#ffffff" stroke-linecap="round" stroke-linejoin="round" id="svg_4" fill-opacity="1" stroke-opacity="1"/>			</g>			<path d="M820.3628546840667,595.7714047229385 L868.2107546840666,552.1954947229385 C747.9416546840667,420.1353947229386 543.1516546840668,410.5663947229385 411.0916546840667,530.8360947229385 L454.66765468406675,578.6838947229385 C560.4116546840668,482.3813947229386 724.0596546840668,490.02739472293854 820.3628546840667,595.7714047229385 z" fill="#21ba45" fill-opacity="1" stroke-width="0" id="svg_5" stroke="#ffffff" stroke-opacity="1"/>		</g></g></svg>